<svg width="18" height="18" viewBox="0 0 18 18" fill="none" xmlns="http://www.w3.org/2000/svg">
<path d="M3.87484 13.2501C4.58317 12.7084 5.37484 12.2813 6.24984 11.9688C7.12484 11.6563 8.0415 11.5001 8.99984 11.5001C9.95817 11.5001 10.8748 11.6563 11.7498 11.9688C12.6248 12.2813 13.4165 12.7084 14.1248 13.2501C14.6109 12.6806 14.9894 12.0348 15.2603 11.3126C15.5311 10.5904 15.6665 9.81953 15.6665 9.00008C15.6665 7.15286 15.0172 5.57994 13.7186 4.28133C12.42 2.98272 10.8471 2.33341 8.99984 2.33341C7.15262 2.33341 5.5797 2.98272 4.28109 4.28133C2.98248 5.57994 2.33317 7.15286 2.33317 9.00008C2.33317 9.81953 2.46859 10.5904 2.73942 11.3126C3.01025 12.0348 3.38873 12.6806 3.87484 13.2501ZM8.99984 9.83341C8.18039 9.83341 7.48942 9.55217 6.92692 8.98967C6.36442 8.42716 6.08317 7.73619 6.08317 6.91675C6.08317 6.0973 6.36442 5.40633 6.92692 4.84383C7.48942 4.28133 8.18039 4.00008 8.99984 4.00008C9.81928 4.00008 10.5103 4.28133 11.0728 4.84383C11.6353 5.40633 11.9165 6.0973 11.9165 6.91675C11.9165 7.73619 11.6353 8.42716 11.0728 8.98967C10.5103 9.55217 9.81928 9.83341 8.99984 9.83341ZM8.99984 17.3334C7.84706 17.3334 6.76373 17.1147 5.74984 16.6772C4.73595 16.2397 3.854 15.6459 3.104 14.8959C2.354 14.1459 1.76025 13.264 1.32275 12.2501C0.885254 11.2362 0.666504 10.1529 0.666504 9.00008C0.666504 7.8473 0.885254 6.76397 1.32275 5.75008C1.76025 4.73619 2.354 3.85425 3.104 3.10425C3.854 2.35425 4.73595 1.7605 5.74984 1.323C6.76373 0.885498 7.84706 0.666748 8.99984 0.666748C10.1526 0.666748 11.2359 0.885498 12.2498 1.323C13.2637 1.7605 14.1457 2.35425 14.8957 3.10425C15.6457 3.85425 16.2394 4.73619 16.6769 5.75008C17.1144 6.76397 17.3332 7.8473 17.3332 9.00008C17.3332 10.1529 17.1144 11.2362 16.6769 12.2501C16.2394 13.264 15.6457 14.1459 14.8957 14.8959C14.1457 15.6459 13.2637 16.2397 12.2498 16.6772C11.2359 17.1147 10.1526 17.3334 8.99984 17.3334ZM8.99984 15.6667C9.73595 15.6667 10.4304 15.5591 11.0832 15.3438C11.7359 15.1286 12.3332 14.8195 12.8748 14.4167C12.3332 14.014 11.7359 13.7049 11.0832 13.4897C10.4304 13.2744 9.73595 13.1667 8.99984 13.1667C8.26373 13.1667 7.56928 13.2744 6.9165 13.4897C6.26373 13.7049 5.6665 14.014 5.12484 14.4167C5.6665 14.8195 6.26373 15.1286 6.9165 15.3438C7.56928 15.5591 8.26373 15.6667 8.99984 15.6667ZM8.99984 8.16675C9.36095 8.16675 9.65956 8.04869 9.89567 7.81258C10.1318 7.57647 10.2498 7.27786 10.2498 6.91675C10.2498 6.55564 10.1318 6.25703 9.89567 6.02091C9.65956 5.7848 9.36095 5.66675 8.99984 5.66675C8.63873 5.66675 8.34012 5.7848 8.104 6.02091C7.86789 6.25703 7.74984 6.55564 7.74984 6.91675C7.74984 7.27786 7.86789 7.57647 8.104 7.81258C8.34012 8.04869 8.63873 8.16675 8.99984 8.16675Z" fill="white"/>
</svg>
