<svg width="151" height="38" viewBox="0 0 151 38" fill="none" xmlns="http://www.w3.org/2000/svg">
<g clip-path="url(#clip0_1502_578)">
<path d="M129.97 0.951904C122.177 0.951904 115.76 7.25443 115.76 15.1612C115.76 22.9534 122.063 29.3705 129.97 29.3705C137.762 29.3705 144.179 23.068 144.179 15.1612C144.179 7.25443 137.762 0.951904 129.97 0.951904ZM140.97 7.25443C140.283 7.71279 139.481 8.17116 138.679 8.62952C138.22 7.71279 137.647 6.79606 136.96 5.99392C137.533 5.65015 138.106 5.19178 138.564 4.84801C139.595 5.42097 140.397 6.3377 140.97 7.25443ZM135.012 2.55618C136.157 3.01455 137.189 3.5875 138.22 4.38964C137.762 4.84801 137.189 5.19178 136.616 5.53556C135.928 4.73342 135.126 4.04587 134.324 3.35832C134.553 3.01455 134.782 2.78537 135.012 2.55618ZM136.157 5.76474C135.355 6.2231 134.553 6.45229 133.751 6.79606C133.407 5.99392 133.064 5.19178 132.605 4.50423C133.064 4.27505 133.522 4.04587 133.866 3.7021C134.668 4.27505 135.47 4.9626 136.157 5.76474ZM134.439 2.327C134.209 2.55618 133.98 2.78537 133.866 3.01455C133.064 2.55618 132.376 2.09782 131.459 1.75404C132.491 1.75404 133.522 1.98323 134.439 2.327ZM133.407 3.35832C133.064 3.5875 132.72 3.81669 132.376 3.93128C131.918 3.24373 131.459 2.67077 131.001 1.98323C131.803 2.327 132.605 2.78536 133.407 3.35832ZM130.199 2.09782C130.772 2.67077 131.23 3.35832 131.688 4.16046C131.23 4.27505 130.772 4.38964 130.199 4.38964V2.09782ZM130.199 4.9626C130.772 4.9626 131.459 4.84801 132.032 4.61883C132.491 5.30637 132.834 6.10851 133.178 6.91065C132.261 7.13983 131.23 7.25443 130.199 7.36902V4.9626ZM129.626 2.09782V4.38964C129.167 4.38964 128.709 4.27505 128.136 4.16046C128.709 3.47291 129.167 2.78537 129.626 2.09782ZM127.678 3.93128C127.334 3.81669 126.876 3.5875 126.646 3.35832C127.449 2.89996 128.251 2.44159 129.053 2.09782C128.48 2.67077 128.022 3.24373 127.678 3.93128ZM128.48 1.63945C127.678 1.98323 126.876 2.44159 126.073 2.89996C125.844 2.67077 125.615 2.44159 125.501 2.21241C126.417 1.98323 127.449 1.75404 128.48 1.63945ZM138.22 25.9328C136.387 24.9015 136.272 23.4118 136.387 22.9534C136.501 22.3805 136.845 22.6097 137.074 22.6097C138.335 22.6097 139.595 22.2659 141.2 20.547C143.033 18.7136 143.606 14.5883 140.741 11.9527C137.762 9.08789 134.553 9.54625 132.491 12.1819C132.032 12.7548 131.001 13.0986 130.199 13.0986C128.824 13.0986 129.74 14.1299 129.74 14.3591C129.74 14.5883 129.511 14.7029 129.397 14.7029C128.938 14.5883 129.167 15.2758 129.167 15.3904C129.167 15.505 128.938 15.7342 128.938 15.7342C128.365 15.7342 128.48 16.1925 128.594 16.4217C128.594 16.5363 128.594 16.7655 128.365 16.8801C128.136 16.9947 128.022 17.4531 128.022 17.7968C128.022 18.3698 128.594 18.8281 129.511 19.5157C130.428 20.2032 130.543 20.8908 130.543 21.3492C130.543 21.8075 130.657 22.6097 130.772 23.068C131.001 23.641 131.001 24.7869 129.74 24.7869C128.136 24.9015 125.386 26.0474 125.157 26.162C124.24 26.5058 123.094 26.6204 122.177 26.3912C121.719 26.0474 121.261 25.7036 120.802 25.2453C120.573 24.6723 120.917 23.9848 121.261 23.5264C121.834 24.0993 122.521 23.9848 122.98 23.9848C123.438 23.9848 125.501 23.641 125.844 23.5264C126.188 23.4118 126.303 23.4118 126.417 23.5264C127.219 23.8702 128.365 23.8702 128.824 22.3805C129.282 20.7762 128.251 21.2346 128.022 21.3492C127.907 21.4637 127.678 21.3492 127.792 21.2346C128.022 20.8908 127.678 20.8908 127.563 20.8908C127.105 20.8908 126.532 21.3492 126.417 21.4637C126.188 21.5783 126.073 21.5783 125.959 21.5783C125.386 21.2346 123.667 21.6929 123.094 20.7762C123.094 20.547 122.636 16.7655 122.407 16.078C122.407 15.9634 122.292 15.7342 122.521 15.505C122.979 14.8175 124.125 15.505 124.813 15.505C125.615 15.505 125.73 15.1612 125.959 14.932C126.188 14.7029 126.303 14.8175 126.417 14.7029C126.532 14.5883 126.417 14.4737 126.417 14.3591C126.417 14.2445 126.532 14.3591 126.646 14.2445C126.761 14.1299 126.646 13.9007 126.646 13.7861C126.876 13.4424 127.334 13.6715 127.105 12.984C126.99 12.5256 127.219 12.0673 127.449 11.8381C127.792 11.3797 129.282 9.31707 126.761 7.13983C124.355 5.07719 121.834 5.30637 120.229 7.02524C118.625 8.74411 119.427 11.2651 119.542 11.9527C119.656 12.6402 119.198 13.2132 118.625 13.4424C118.167 13.6715 117.135 14.3591 116.448 14.932C116.562 9.43166 119.886 4.61883 124.928 2.67077C125.157 2.89996 125.386 3.24373 125.615 3.47291C125.042 3.93128 123.782 4.9626 123.782 4.9626C123.782 4.9626 123.896 4.9626 124.125 5.07719C124.24 5.07719 124.469 5.19178 124.469 5.19178C124.469 5.19178 125.501 4.27505 126.073 3.93128C126.417 4.27505 126.876 4.50423 127.334 4.73342C127.105 5.19178 126.417 6.3377 126.417 6.3377C126.417 6.3377 126.532 6.45229 126.646 6.45229C126.761 6.56688 126.876 6.56688 126.876 6.56688C126.876 6.56688 127.563 5.30637 127.792 4.84801C128.365 5.07719 128.938 5.19178 129.511 5.19178V7.48361C129.167 7.48361 128.365 7.48361 128.022 7.36902H127.792L127.907 7.5982C128.022 7.71279 128.022 7.82738 128.136 7.94197C128.365 7.94197 129.167 7.94197 129.511 7.94197V12.1819H130.084V11.1505C131.001 11.1505 131.688 11.0359 132.491 10.9213L133.293 10.2338H132.834C131.918 10.3484 131.115 10.463 130.428 10.463C130.428 10.463 130.199 10.463 130.084 10.463V7.82738C131.115 7.82738 132.261 7.71279 133.293 7.36902C133.522 8.05656 134.095 9.77543 134.095 9.77543L134.668 9.54625C134.668 9.54625 134.095 7.82738 133.866 7.13983C134.782 6.91065 135.585 6.45229 136.387 6.10851C137.074 6.91065 137.647 7.82738 138.106 8.74411C137.647 8.9733 136.96 9.20248 136.96 9.20248C137.533 9.31707 137.991 9.43166 137.991 9.43166C137.991 9.43166 138.22 9.31707 138.335 9.31707C138.335 9.43166 138.449 9.66084 138.449 9.66084L139.251 10.0046L139.137 9.77543C139.137 9.77543 138.908 9.20248 138.793 9.08789C139.595 8.74411 140.397 8.28575 141.2 7.71279C142.689 9.89003 143.377 12.5256 143.377 15.1612C143.606 19.5157 141.429 23.4118 138.22 25.9328Z" fill="#009EDB"/>
<path d="M114.5 4.73349L114.27 4.96267C113.468 5.65022 111.52 7.59827 111.864 9.77551V9.8901L111.979 10.3485L112.208 10.1193C113.354 9.08796 114.27 7.2545 114.614 5.19185L114.729 4.6189L114.5 4.73349Z" fill="#009EDB"/>
<path d="M110.604 8.40024L110.489 8.62942C110.374 8.97319 110.145 9.77533 110.031 10.6921C109.801 12.0672 109.916 14.1298 111.062 15.6195L111.176 15.8487L111.291 16.0779L111.52 15.1611C111.749 13.5568 111.406 10.2337 110.833 8.74401L110.604 8.28564V8.40024Z" fill="#009EDB"/>
<path d="M109.228 14.1299V14.3591C109.114 15.7342 109.228 19.2865 112.093 21.2346L112.437 21.4637V21.0054C112.437 19.6303 110.833 15.6196 109.687 14.2445L109.343 13.7861L109.228 14.1299Z" fill="#009EDB"/>
<path d="M109.687 20.4323V20.6615C110.145 22.7241 111.979 25.9327 114.958 26.964L115.417 27.0786L115.302 26.6202C114.729 25.1306 111.864 21.5782 110.031 20.4323L109.687 20.2031V20.4323Z" fill="#009EDB"/>
<path d="M115.76 7.82748L115.417 7.94207C113.239 9.31717 112.208 10.9214 112.208 12.9841V13.4425L112.552 13.2133C113.698 12.182 115.302 9.66094 115.646 8.28585L115.76 7.71289V7.82748Z" fill="#009EDB"/>
<path d="M114.385 12.182L114.271 12.4112C113.698 12.9841 111.864 14.9322 111.979 17.3386C111.979 17.6824 112.093 18.1407 112.208 18.4845L112.323 18.8283L112.552 18.4845C113.468 17.224 114.614 14.0154 114.5 12.5257V12.0674L114.385 12.182Z" fill="#009EDB"/>
<path d="M114.5 16.4217L114.385 16.6509C113.469 18.026 113.01 19.4011 113.01 20.7762C113.01 21.6929 113.354 22.6097 113.927 23.5264L114.156 23.8702L114.271 23.5264C114.615 22.7242 114.958 20.3178 114.958 18.3698C114.958 17.6822 114.844 17.1093 114.729 16.7655L114.615 16.3071L114.5 16.4217Z" fill="#009EDB"/>
<path d="M115.531 20.8908L115.416 21.12C115.187 22.0367 114.958 22.8389 115.072 23.7556C115.072 25.589 115.989 27.0787 117.593 28.1101L117.823 28.2246L117.937 27.8809V27.5371C117.937 26.0474 116.791 22.1513 115.875 21.0054L115.645 20.6616L115.531 20.8908Z" fill="#009EDB"/>
<path d="M112.437 26.8495L112.552 27.0786C113.698 29.0267 115.76 31.6623 119.542 30.9747H119.886L119.657 30.7456C118.969 29.7142 114.385 27.0786 112.781 26.8495L112.323 26.7349L112.437 26.8495Z" fill="#009EDB"/>
<path d="M118.052 31.8915L117.479 32.0061L118.052 32.2353C120.458 33.2666 123.438 33.4958 125.271 32.9228C125.959 32.6936 126.303 32.3499 126.761 31.8915C129.855 32.2353 132.72 34.7563 134.439 36.8189L134.553 36.9335H134.668C134.897 36.8189 135.126 36.5898 135.241 36.4752L135.355 36.3606L135.241 36.246C133.522 33.9542 130.772 32.5791 130.657 32.4645C128.136 31.3186 123.782 30.4018 118.052 31.8915Z" fill="#009EDB"/>
<path d="M118.167 25.4745V25.7036C118.511 27.9955 119.427 30.9748 123.323 30.6311H123.553L123.438 30.4019C123.209 29.3706 119.657 26.3912 118.396 25.589L118.052 25.3599L118.167 25.4745Z" fill="#009EDB"/>
<path d="M145.21 4.50415L145.325 5.07711C145.669 7.13975 146.586 8.97321 147.731 10.0045L147.961 10.2337L148.075 9.77535V9.66076C148.419 7.48352 146.471 5.53547 145.669 4.84792L145.44 4.61874L145.21 4.50415Z" fill="#009EDB"/>
<path d="M149.221 8.17114L148.992 8.62951C148.419 10.1192 148.189 13.4423 148.304 15.0466L148.533 15.9634L148.648 15.8488L148.762 15.6196C150.023 14.1299 150.023 12.1818 149.794 10.6922C149.679 9.66083 149.45 8.97328 149.335 8.62951L149.221 8.40032V8.17114Z" fill="#009EDB"/>
<path d="M150.711 13.9006L150.367 14.359C149.221 15.8487 147.617 19.7448 147.617 21.1199V21.5783L147.96 21.3491C150.825 19.5156 150.94 15.9633 150.825 14.4736V14.2444L150.711 13.9006Z" fill="#009EDB"/>
<path d="M150.252 20.2031L149.794 20.4323C147.961 21.5782 145.096 25.1306 144.523 26.6202L144.408 27.0786L144.867 26.964C147.846 26.0473 149.794 22.7241 150.138 20.6615V20.4323L150.252 20.2031Z" fill="#009EDB"/>
<path d="M144.179 7.59814L144.293 8.1711C144.752 9.66079 146.127 12.1818 147.387 13.2131L147.731 13.4423V12.9839C147.846 10.9213 146.814 9.31701 144.637 7.94192L144.408 7.82733L144.179 7.59814Z" fill="#009EDB"/>
<path d="M145.439 12.0674V12.5257C145.325 14.0154 146.585 17.3386 147.387 18.4845L147.617 18.8283L147.731 18.4845C147.846 18.0261 147.96 17.6824 147.96 17.3386C148.075 14.9322 146.242 12.9841 145.669 12.4112L145.554 12.2966L145.439 12.0674Z" fill="#009EDB"/>
<path d="M145.325 16.1926L145.21 16.651C145.096 16.9948 144.981 17.5677 144.981 18.2553C144.981 20.2033 145.21 22.6097 145.669 23.4119L145.783 23.7557L146.012 23.4119C146.585 22.6097 146.929 21.693 146.929 20.6617C146.929 19.4012 146.471 17.9115 145.554 16.5364L145.439 16.3072L145.325 16.1926Z" fill="#009EDB"/>
<path d="M144.293 20.6616L144.064 21.0054C143.147 22.1513 142.001 26.0474 142.001 27.5371C142.001 27.5371 142.001 27.7663 142.001 27.8809L142.116 28.2246L142.345 28.1101C143.95 27.0787 144.752 25.589 144.866 23.7556C144.866 22.9534 144.752 22.0367 144.522 21.12L144.408 20.8908L144.293 20.6616Z" fill="#009EDB"/>
<path d="M147.617 26.6204L147.158 26.735C145.554 26.9641 140.97 29.5997 140.283 30.6311L140.054 30.8602H140.397C144.179 31.5478 146.242 28.9122 147.388 26.9641L147.502 26.735L147.617 26.6204Z" fill="#009EDB"/>
<path d="M129.396 32.4645C129.282 32.4645 126.532 33.9542 124.813 36.246L124.698 36.3606L124.813 36.4752C124.927 36.5898 125.271 36.8189 125.386 36.9335H125.5L125.615 36.8189C127.334 34.7563 130.199 32.1207 133.293 31.8915C133.751 32.3499 134.209 32.6936 134.782 32.9228C136.501 33.4958 139.595 33.2666 142.002 32.2353L142.574 32.0061L142.002 31.8915C136.157 30.4018 131.803 31.3186 129.396 32.4645Z" fill="#009EDB"/>
<path d="M141.772 25.2454L141.429 25.4745C140.168 26.2767 136.73 29.2561 136.387 30.2874L136.272 30.5166H136.501C140.283 30.8603 141.199 27.881 141.658 25.5891V25.36L141.772 25.2454Z" fill="#009EDB"/>
<path d="M45.0576 2.3269H49.8705V6.68137H45.0576V2.3269ZM45.516 11.7234H49.5267V33.0374H45.516V11.7234Z" fill="#009EDB"/>
<path d="M15.1491 11.7234H19.1598V33.0374H15.2637V29.9434H15.1491C13.5448 32.579 10.7946 33.7249 7.81526 33.7249C3.3462 33.7249 0.825195 30.2872 0.825195 26.0473V11.7234H4.83589V24.3284C4.83589 27.9954 5.63803 30.7455 9.53413 30.7455C11.1384 30.7455 13.4302 29.9434 14.2324 27.6516C15.0345 25.7035 15.0345 23.1825 15.0345 22.6096V11.7234H15.1491Z" fill="#009EDB"/>
<path d="M27.1811 14.8174C28.6708 12.1818 31.5356 11.0359 33.7128 11.0359C35.2025 11.0359 41.7342 11.3797 41.7342 18.2551V32.9228H37.7235V19.5156C37.7235 15.9633 36.2338 14.1299 32.7961 14.1299C32.7961 14.1299 30.6188 14.0153 28.9 15.7341C28.327 16.3071 27.1811 17.2238 27.1811 21.4637V33.0374H23.1704V11.7234H27.1811V14.8174Z" fill="#009EDB"/>
<path d="M66.3713 18.4843C66.1421 15.8487 64.8816 14.0153 62.0168 14.0153C58.2353 14.0153 56.7456 17.3384 56.7456 22.2658C56.7456 27.1933 58.2353 30.5164 62.0168 30.5164C64.6524 30.5164 66.2567 28.7975 66.4858 25.7036H70.4965C70.1528 30.5164 66.6004 33.3812 61.9022 33.3812C55.1413 33.3812 52.3911 28.5684 52.3911 22.3804C52.3911 16.1925 55.4851 11.0359 62.246 11.0359C66.715 11.0359 70.0382 13.9007 70.2674 18.4843H66.3713Z" fill="#009EDB"/>
<path d="M76.4557 23.0681C76.1119 26.7351 77.7162 30.6312 81.7269 30.6312C84.8209 30.6312 86.4251 29.3707 86.8835 26.2767H91.1234C90.4358 31.0895 86.7689 33.4959 81.7269 33.4959C74.966 33.4959 72.2158 28.6831 72.2158 22.4952C72.2158 16.3072 75.3098 11.1506 82.0707 11.1506C88.3732 11.2652 91.3526 15.2759 91.3526 21.1201V23.0681H76.4557ZM87.2273 20.3179C87.3419 16.7656 85.7376 14.0154 81.8415 14.0154C78.5183 14.0154 76.5703 16.8802 76.5703 20.3179H87.2273Z" fill="#009EDB"/>
<path d="M95.936 32.8083V14.4737H92.269V11.7235H95.936V7.13981C96.0506 2.55616 99.6029 1.29565 102.582 1.29565C103.499 1.29565 104.53 1.52484 105.447 1.75402V5.07717C104.759 5.07717 104.072 4.96258 103.384 4.96258C101.093 4.96258 99.8321 5.53553 99.9467 7.82736V11.7235H104.874V14.4737H99.9467V32.8083H95.936Z" fill="#009EDB"/>
</g>
<defs>
<clipPath id="clip0_1502_578">
<rect width="150" height="36.0963" fill="white" transform="translate(0.825195 0.951904)"/>
</clipPath>
</defs>
</svg>
